<svg id="Layer_1" data-name="Layer 1" xmlns="http://www.w3.org/2000/svg" viewBox="0 0 2576.01 909.96"><defs><style>.cls-1{fill:#ffc900;}.cls-2{fill:#1904da;}.cls-3{fill:#ff445f;}.cls-4{fill:#08b1d5;}.cls-5{fill:#00ffe4;}</style></defs><path d="M1182,576.67c0,57.32-46.47,104-103.73,104a103.24,103.24,0,0,1-66-23.77V818.82H974.41V473.08h37.87v23.59a103.82,103.82,0,0,1,169.71,80Zm-37.86,0a65.93,65.93,0,1,0-65.87,66.18C1114.67,642.85,1144.13,613.07,1144.13,576.67Z"/><path d="M1410.27,576.77a103.68,103.68,0,1,1-103.66-103.69A103.69,103.69,0,0,1,1410.27,576.77Zm-37.86,0a65.84,65.84,0,1,0-65.8,65.85A65.8,65.8,0,0,0,1372.41,576.77Z"/><path d="M1574.93,622.42c-1.89,21.46-21.32,58-70,58-46.21,0-73.87-30.95-73.87-30.95l26.54-26.54c22.46,21.34,47.33,20,47.33,20,15.89-1.09,28.65-12.09,29.61-25,1.11-14.82-9.2-25.13-29.61-28.06-9.61-1.38-32.89-3.6-52-20.75-6.22-5.58-29.7-30.1-10.15-65,3.81-6.8,20.87-31,62.16-31,0,0,34-2.42,65.5,23.29l-26.86,26.85c-5.29-4.41-20.41-13.32-38.64-13.21-33,.21-32.09,18.38-32.09,18.38.29,14.47,13.17,22.25,32.09,24.74C1569.32,561.69,1576.81,601.18,1574.93,622.42Z"/><path d="M1705.4,642.85v37.57A103.14,103.14,0,0,1,1638.57,656a104.34,104.34,0,0,1-37.36-80.11V387.7h37.36v85.38h66.83v37.81h-66.83v65.9A66.86,66.86,0,0,0,1705.4,642.85Z"/><path d="M1924.29,590.26H1757.08a65.74,65.74,0,0,0,115.6,27.81h43.85a103.77,103.77,0,0,1-95,62.36c-57.19,0-103.68-46.58-103.68-103.83a103.6,103.6,0,0,1,103.68-103.52C1883.6,472.59,1932.88,528.8,1924.29,590.26Zm-41.53-37.82a66,66,0,0,0-122.51,0Z"/><path d="M2152.38,590.26H1985.17a65.74,65.74,0,0,0,115.6,27.81h43.85a103.77,103.77,0,0,1-95,62.36c-57.19,0-103.68-46.58-103.68-103.83a103.6,103.6,0,0,1,103.68-103.52C2111.69,472.59,2161,528.8,2152.38,590.26Zm-41.53-37.82a66,66,0,0,0-122.51,0Z"/><path d="M1182.39,422h19.08V303.49c.06-1.05,0-2.1,0-3.16a52.42,52.42,0,1,0-52.39,52.46h2.65l19.3-19.22h-22a33.24,33.24,0,1,1,33.31-33.24Z"/><path d="M1303,247.88V301a33.58,33.58,0,1,1-67.16,0v-53.1h-18.59V301a52.19,52.19,0,1,0,104.38.08V247.88Z"/><path d="M1077.68,282.57c-20.76-54.84-101.24-41.53-102.45,17.92a52.83,52.83,0,0,0,49.27,52.66c1.15.08,2.3.12,3.47.12h52.84V300.49A52.85,52.85,0,0,0,1077.68,282.57ZM1061.28,334H1028a33.5,33.5,0,0,1-33.43-33.51,33.12,33.12,0,0,1,9.84-23.6h0c20.65-20.92,57-6.24,56.86,23.59Z"/><path d="M1440,282.57c-20.77-54.84-101.24-41.53-102.45,17.92a52.83,52.83,0,0,0,49.26,52.66q1.73.12,3.48.12h52.83V300.49A52.84,52.84,0,0,0,1440,282.57ZM1423.55,334h-33.27a33.5,33.5,0,0,1-33.43-33.51,33.12,33.12,0,0,1,9.84-23.6h0c20.65-20.92,57-6.24,56.86,23.59Z"/><polygon class="cls-1" points="136.53 483.36 312.35 523.06 880.98 156.72 136.53 483.36"/><polygon class="cls-2" points="312.35 523.06 880.98 156.72 429.19 749.16 312.35 523.06"/><polygon class="cls-3" points="522.88 571.95 787.28 252.97 787.28 147.55 522.88 266.06 522.88 571.95"/><polygon class="cls-4" points="465.43 557.36 880.98 156.72 429.19 749.16 465.43 557.36"/><polygon class="cls-5" points="880.98 156.72 779.19 645.96 464.95 557.81 880.98 156.72"/></svg>