<svg id="_01" data-name="01" xmlns="http://www.w3.org/2000/svg" viewBox="0 0 500 524"><defs><style>.cls-1{fill:#ffc900;}.cls-2{fill:#1904da;}.cls-3{fill:#ff445f;}.cls-4{fill:#08b1d5;}.cls-5{fill:#00ffe4;}</style></defs><polygon class="cls-1" points="113.51 187.75 183.72 203.6 410.77 57.32 113.51 187.75"/><polygon class="cls-2" points="183.72 203.6 410.77 57.32 230.37 293.88 183.72 203.6"/><polygon class="cls-3" points="267.79 223.12 373.36 95.75 373.36 53.66 267.79 100.98 267.79 223.12"/><polygon class="cls-4" points="244.84 217.29 410.77 57.32 230.37 293.88 244.84 217.29"/><polygon class="cls-5" points="410.77 57.32 370.13 252.67 244.65 217.47 410.77 57.32"/><path d="M184.31,390.73a22.7,22.7,0,0,1-37.16,17.58v35.44h-8.3v-75.7h8.3v5.16a22.74,22.74,0,0,1,37.16,17.52Zm-8.29,0a14.44,14.44,0,1,0-14.43,14.49A14.38,14.38,0,0,0,176,390.73Z"/><path d="M234.29,390.75a22.7,22.7,0,1,1-22.69-22.7A22.7,22.7,0,0,1,234.29,390.75Zm-8.29,0a14.42,14.42,0,1,0-14.4,14.42A14.4,14.4,0,0,0,226,390.75Z"/><path d="M270.35,400.75c-.41,4.7-4.67,12.7-15.34,12.7a23,23,0,0,1-16.17-6.78l5.81-5.81A15.14,15.14,0,0,0,255,405.24c3.48-.24,6.27-2.65,6.49-5.48.24-3.25-2-5.5-6.49-6.15-2.1-.3-7.2-.79-11.39-4.54a11.09,11.09,0,0,1-2.22-14.22c.84-1.49,4.57-6.79,13.61-6.79a22.17,22.17,0,0,1,14.34,5.1L263.47,379a14.13,14.13,0,0,0-8.46-2.89c-7.22,0-7,4-7,4,.06,3.17,2.88,4.87,7,5.42C269.12,387.45,270.76,396.1,270.35,400.75Z"/><path d="M298.92,405.22v8.23a22.58,22.58,0,0,1-14.63-5.36,22.83,22.83,0,0,1-8.19-17.54v-41.2h8.19v18.7h14.63v8.28H284.29v14.43A14.63,14.63,0,0,0,298.92,405.22Z"/><path d="M346.85,393.71H310.24a14.39,14.39,0,0,0,25.31,6.08h9.6a22.66,22.66,0,1,1,1.7-6.08Zm-9.09-8.29a14.45,14.45,0,0,0-26.83,0Z"/><path d="M396.8,393.71H360.18a14.39,14.39,0,0,0,25.31,6.08h9.61a22.66,22.66,0,1,1,1.7-6.08Zm-9.1-8.29a14.44,14.44,0,0,0-26.82,0Z"/><path d="M184.4,356.86h4.17V330.91c0-.23,0-.46,0-.69a11.48,11.48,0,1,0-11.47,11.49h.58l4.23-4.21H177.1a7.28,7.28,0,1,1,7.3-7.28Z"/><path d="M210.81,318.73v11.63a7.35,7.35,0,1,1-14.7,0V318.73H192v11.63h0a11.43,11.43,0,1,0,22.85,0V318.73Z"/><path d="M161.47,326.33c-4.55-12-22.17-9.09-22.44,3.92a11.58,11.58,0,0,0,10.79,11.54l.76,0h11.57V330.25A11.63,11.63,0,0,0,161.47,326.33Zm-3.59,11.26h-7.29a7.33,7.33,0,0,1-7.32-7.34,7.24,7.24,0,0,1,2.15-5.16h0a7.29,7.29,0,0,1,12.45,5.16Z"/><path d="M240.79,326.33c-4.54-12-22.16-9.09-22.43,3.92a11.58,11.58,0,0,0,10.79,11.54l.76,0h11.57V330.25A11.4,11.4,0,0,0,240.79,326.33Zm-3.59,11.26h-7.28a7.33,7.33,0,0,1-7.32-7.34,7.24,7.24,0,0,1,2.15-5.16h0a7.29,7.29,0,0,1,12.45,5.16Z"/></svg>